<svg xmlns="http://www.w3.org/2000/svg" fill="none" viewBox="0 0 256 256">
  <path fill="#3FC5CE" d="M43.69 150.75c-17.59-10.15-17.59-35.52 0-45.67l142.75-82.42C204.02 12.5 226 25.19 226 45.49v164.84c0 20.3-21.98 33-39.56 22.84L43.7 150.75Z"/>
  <path fill="#fff" d="M155.32 111.37a25.55 25.55 0 1 0-51.1 0h12.77a12.77 12.77 0 1 1 12.77 12.77h-51.1v12.78h51.1a25.58 25.58 0 0 0 25.56-25.55Z"/>
  <path fill="#fff" fill-opacity=".9" d="M182.18 111.37a25.6 25.6 0 0 0-25.55 25.55h12.77a12.78 12.78 0 1 1 12.78 12.78H92.75v12.77h89.43a25.55 25.55 0 1 0 0-51.1Z"/>
</svg>